<svg xmlns="http://www.w3.org/2000/svg" width="32" height="32" viewBox="0 0 32 32">
  <g id="그룹_131" data-name="그룹 131" transform="translate(-1802 -29)">
    <g id="그룹_130" data-name="그룹 130">
      <rect id="사각형_122" data-name="사각형 122" width="32" height="32" transform="translate(1802 29)" fill="none"/>
    </g>
    <g id="_28" data-name="28" transform="translate(1803.586 30.762)">
      <path id="패스_212" data-name="패스 212" d="M24.964,20.058l-1.495-2.15a1.748,1.748,0,0,1-.315-1V10.74a8.74,8.74,0,0,0-17.481,0v6.171a1.748,1.748,0,0,1-.315,1l-1.495,2.15a1.748,1.748,0,0,0,1.294,2.919h4.973a4.37,4.37,0,0,0,8.566,0h4.973a1.748,1.748,0,0,0,1.294-2.919Zm-10.55,4.667a2.622,2.622,0,0,1-2.465-1.748h4.93a2.622,2.622,0,0,1-2.465,1.748Zm-9.256-3.5a.708.708,0,0,0,.1-.122l1.53-2.2a3.5,3.5,0,0,0,.629-1.993V10.74a6.992,6.992,0,0,1,13.985,0v6.171a3.5,3.5,0,0,0,.629,1.993l1.53,2.2a.708.708,0,0,0,.1.122Z" transform="translate(0)"/>
    </g>
  </g>
</svg>
