<svg xmlns="http://www.w3.org/2000/svg" width="32" height="32" viewBox="0 0 32 32">
  <g id="btn_gnb_my" transform="translate(-1408 -29)">
    <rect id="사각형_122" data-name="사각형 122" width="32" height="32" transform="translate(1408 29)" fill="none"/>
    <g id="user_3_" data-name="user (3)" transform="translate(1383 34.001)">
      <g id="그룹_120" data-name="그룹 120" transform="translate(35)">
        <g id="그룹_119" data-name="그룹 119" transform="translate(0)">
          <path id="패스_210" data-name="패스 210" d="M127,0a6,6,0,1,0,6,6A6.007,6.007,0,0,0,127,0Zm0,10.667A4.667,4.667,0,1,1,131.667,6,4.672,4.672,0,0,1,127,10.667Z" transform="translate(-121)" stroke="#2b2b2b" stroke-width="0.3"/>
        </g>
      </g>
      <g id="그룹_122" data-name="그룹 122" transform="translate(31 13.333)">
        <g id="그룹_121" data-name="그룹 121" transform="translate(0)">
          <path id="패스_211" data-name="패스 211" d="M48.465,302.586A8.553,8.553,0,0,0,42.333,300H39.667a8.553,8.553,0,0,0-6.132,2.586A8.744,8.744,0,0,0,31,308.756a.667.667,0,0,0,.667.667H50.333a.667.667,0,0,0,.667-.667A8.744,8.744,0,0,0,48.465,302.586Zm-16.1,5.5a7.378,7.378,0,0,1,7.3-6.756h2.667a7.378,7.378,0,0,1,7.3,6.756Z" transform="translate(-31 -300)" stroke="#2b2b2b" stroke-width="0.3"/>
        </g>
      </g>
    </g>
  </g>
</svg>
