<svg xmlns="http://www.w3.org/2000/svg" width="28" height="28" viewBox="0 0 28 28">
  <g id="ico-ringing" transform="translate(3 4)">
    <rect id="사각형_144" data-name="사각형 144" width="28" height="28" transform="translate(-3 -4)" fill="none"/>
    <g id="그룹_128" data-name="그룹 128" transform="translate(1)">
      <path id="패스_213" data-name="패스 213" d="M21.206,9.04a.818.818,0,0,1-.818-.818,8.536,8.536,0,0,0-2.516-6.075A.818.818,0,1,1,19.029.99a10.16,10.16,0,0,1,3,7.232A.818.818,0,0,1,21.206,9.04Z" transform="translate(-3.023 -0.137)" fill="#fff"/>
      <path id="패스_214" data-name="패스 214" d="M1.818,9.04A.818.818,0,0,1,1,8.222,10.16,10.16,0,0,1,4,.99.818.818,0,0,1,5.152,2.147,8.535,8.535,0,0,0,2.636,8.222a.818.818,0,0,1-.818.818Z" transform="translate(0 -0.137)" fill="#fff"/>
      <path id="패스_215" data-name="패스 215" d="M17.856,13.838a5.48,5.48,0,0,1-1.946-4.193V7.364A5.732,5.732,0,0,0,11,1.7V.818a.818.818,0,0,0-1.636,0V1.7A5.731,5.731,0,0,0,4.455,7.364V9.645a5.486,5.486,0,0,1-1.954,4.2,1.432,1.432,0,0,0,.931,2.519h13.5a1.432,1.432,0,0,0,.924-2.526Z" transform="translate(-0.182)" fill="#fff"/>
      <path id="패스_216" data-name="패스 216" d="M11.332,23.455A3.073,3.073,0,0,0,14.338,21H8.326A3.073,3.073,0,0,0,11.332,23.455Z" transform="translate(-1.332 -3.818)" fill="#fff"/>
    </g>
  </g>
</svg>
